<svg width="36" height="36" viewBox="0 0 36 36" fill="none" xmlns="http://www.w3.org/2000/svg">
<circle cx="18" cy="18" r="18" fill="#FF0000"/>
<path fill-rule="evenodd" clip-rule="evenodd" d="M15.1298 20.8696H9.72396C9.53986 20.8696 9.39062 20.7203 9.39062 20.5362V15.4638C9.39062 15.2797 9.53986 15.1304 9.72396 15.1304H15.1298V9.72464C15.1298 9.54054 15.279 9.3913 15.4631 9.3913H20.5356C20.7196 9.3913 20.8689 9.54054 20.8689 9.72464V15.1304H26.2747C26.4588 15.1304 26.608 15.2797 26.608 15.4638V20.5362C26.608 20.7203 26.4588 20.8696 26.2747 20.8696H20.8689V26.2754C20.8689 26.4595 20.7196 26.6087 20.5356 26.6087H15.4631C15.279 26.6087 15.1298 26.4595 15.1298 26.2754V20.8696Z" fill="white"/>
</svg>
