<svg width="134" height="168" viewBox="0 0 110 168" fill="none" xmlns="http://www.w3.org/2000/svg">
<path d="M0 3.35254C0 1.50098 1.49763 0 3.34506 0L-nan -nanL-nan -nanL3.34506 0C29.948 0 51.5139 21.6142 51.5139 48.2766V161.325C51.5139 164.176 49.2075 166.488 46.3625 166.488L-nan -nanL-nan -nanL46.3625 166.488C20.7572 166.488 0 145.684 0 120.022V3.35254Z" fill="white"/>
<path d="M59.8225 156.837C59.8225 162.865 64.9874 167.706 70.7772 166.074C94.1802 159.477 111.336 137.936 111.336 112.379C111.336 86.8232 94.1802 65.2816 70.7772 58.6847C64.9874 57.0527 59.8225 61.8944 59.8225 67.9223V156.837Z" fill="white"/>
</svg>
