<svg width="450" height="58" viewBox="150 100 450 58" fill="none" xmlns="http://www.w3.org/2000/svg">
<path d="M178.368 132.712C180.34 133.73 181.881 135.21 182.99 137.061C184.1 138.943 184.624 141.071 184.624 143.477C184.624 147.085 183.237 150.17 180.463 152.699C177.69 155.228 174.331 156.524 170.417 156.524H151.218V111.337H169.924C173.807 111.337 177.012 112.447 179.601 114.668C182.189 116.889 183.484 119.665 183.484 122.965C183.484 124.908 183.021 126.728 182.128 128.455C181.203 130.183 179.97 131.602 178.368 132.712ZM173.992 124.507C173.992 123.767 173.869 123.119 173.622 122.533C173.376 121.947 173.037 121.454 172.636 121.022C172.205 120.59 171.681 120.251 171.064 120.035C170.448 119.788 169.739 119.665 168.969 119.665H160.833V129.288H168.969C170.51 129.288 171.742 128.856 172.636 127.962C173.53 127.098 173.992 125.926 173.992 124.507ZM169.462 147.579C171.064 147.579 172.328 147.116 173.345 146.16C174.331 145.204 174.824 144.001 174.824 142.49C174.824 141.04 174.331 139.806 173.345 138.881C172.359 137.925 171.064 137.462 169.462 137.462H160.833V147.579H169.462Z" fill="white"/>
<path d="M216.83 157.511C209.957 157.511 204.226 155.259 199.634 150.756C195.042 146.253 192.762 140.639 192.762 133.946C192.762 127.252 195.042 121.639 199.634 117.136C204.226 112.632 209.957 110.381 216.83 110.381C221.36 110.381 225.428 111.398 229.126 113.434C232.793 115.47 235.659 118.308 237.724 121.886C239.788 125.494 240.805 129.504 240.805 133.915C240.805 140.67 238.525 146.283 233.964 150.756C229.434 155.259 223.702 157.511 216.83 157.511ZM216.83 148.288C219.511 148.288 221.914 147.671 224.041 146.438C226.198 145.204 227.893 143.507 229.095 141.318C230.297 139.128 230.944 136.66 230.944 133.946C230.944 129.843 229.588 126.451 226.907 123.705C224.226 120.96 220.867 119.603 216.83 119.603C212.793 119.603 209.434 120.96 206.691 123.705C203.948 126.451 202.592 129.843 202.592 133.946C202.592 138.048 203.948 141.441 206.691 144.186C209.464 146.9 212.823 148.288 216.83 148.288ZM204.318 106.957V98.2279H214.303V106.957H204.318ZM219.418 106.957V98.2279H229.403V106.957H219.418Z" fill="white"/>
<path d="M277.423 156.555L268.64 141.133H262.384V156.555H252.584V111.337H270.828C273.786 111.337 276.467 111.985 278.902 113.249C281.306 114.514 283.186 116.303 284.541 118.585C285.897 120.868 286.575 123.459 286.575 126.327C286.575 129.227 285.836 131.817 284.387 134.131C282.939 136.444 280.936 138.233 278.378 139.436L288.363 156.555H277.423ZM262.384 120.374V132.064H270.181C272.153 132.064 273.725 131.54 274.927 130.46C276.098 129.381 276.714 127.993 276.714 126.266C276.714 125.093 276.467 124.076 275.944 123.212C275.42 122.317 274.68 121.639 273.694 121.145C272.708 120.652 271.537 120.405 270.212 120.405H262.384V120.374Z" fill="white"/>
<path d="M313.263 157.449C308.024 157.449 303.802 156.061 300.597 153.285C297.392 150.509 295.789 146.715 295.789 141.904H305.651C305.651 142.983 305.866 143.939 306.267 144.772C306.668 145.605 307.222 146.284 307.931 146.808C308.64 147.332 309.441 147.702 310.366 147.98C311.259 148.227 312.215 148.381 313.201 148.381C315.173 148.381 316.899 147.918 318.317 146.962C319.765 146.006 320.474 144.711 320.474 143.076C320.474 142.397 320.289 141.78 319.95 141.225C319.611 140.701 319.21 140.269 318.748 139.93C318.286 139.621 317.608 139.282 316.683 138.943C315.759 138.603 314.988 138.326 314.341 138.171C313.694 137.986 312.739 137.771 311.444 137.462C310.427 137.215 309.626 136.999 309.133 136.876C308.64 136.753 307.839 136.537 306.853 136.228C305.836 135.92 305.065 135.673 304.541 135.426C304.017 135.18 303.309 134.871 302.446 134.439C301.583 134.007 300.905 133.576 300.443 133.144C299.98 132.712 299.457 132.188 298.871 131.54C298.285 130.892 297.854 130.214 297.546 129.504C297.238 128.795 296.991 127.962 296.775 127.037C296.56 126.111 296.467 125.124 296.467 124.106C296.467 119.788 297.916 116.457 300.843 114.113C303.771 111.738 307.777 110.566 312.831 110.566C317.947 110.566 321.922 111.861 324.788 114.452C327.654 117.043 329.072 120.59 329.072 125.093H319.395C319.395 123.243 318.748 121.824 317.423 120.868C316.098 119.912 314.495 119.418 312.554 119.418C310.828 119.418 309.349 119.788 308.085 120.528C306.822 121.269 306.175 122.317 306.175 123.705C306.175 124.353 306.329 124.908 306.668 125.402C306.976 125.895 307.376 126.296 307.808 126.636C308.239 126.944 308.917 127.283 309.811 127.592C310.705 127.9 311.475 128.147 312.091 128.301C312.708 128.456 313.663 128.671 314.896 128.98C316.283 129.319 317.3 129.597 317.978 129.782C318.656 129.967 319.642 130.306 320.936 130.738C322.23 131.201 323.216 131.632 323.925 132.064C324.634 132.496 325.466 133.051 326.421 133.761C327.377 134.47 328.086 135.241 328.579 136.074C329.072 136.907 329.503 137.925 329.873 139.097C330.243 140.269 330.428 141.564 330.428 142.952C330.428 146.098 329.626 148.782 328.055 151.034C326.452 153.285 324.418 154.92 321.891 155.938C319.364 156.925 316.498 157.449 313.263 157.449Z" fill="white"/>
<path d="M357.912 157.326C353.443 157.326 349.714 155.845 346.756 152.884C343.797 149.923 342.318 146.16 342.318 141.595V140.701H347.865V141.348C347.865 144.402 348.821 146.9 350.7 148.874C352.58 150.848 355.015 151.805 357.912 151.805C360.716 151.805 363.027 150.818 364.907 148.843C366.787 146.869 367.711 144.371 367.711 141.348V111.398H373.32V141.626C373.32 146.191 371.872 149.954 368.975 152.915C366.078 155.814 362.38 157.326 357.912 157.326Z" fill="white"/>
<path d="M420.503 156.555L415.973 145.698H394.308L389.871 156.555H383.861L402.321 111.368H407.621L426.635 156.555H420.503ZM405.094 119.14L396.466 140.516H413.877L405.094 119.14Z" fill="white"/>
<path d="M464.588 156.555L448.717 135.827H442.646V156.555H437.037V111.337H442.646V130.522H448.655L463.108 111.337H470.319L453.802 133.082L471.799 156.524H464.588V156.555Z" fill="white"/>
<path d="M510.078 111.337V116.642H496.334V156.555H490.663V116.642H476.919V111.337H510.078Z" fill="white"/>
<path d="M527.394 151.126H548.042V156.555H521.786V111.337H547.333V116.704H527.394V130.707H545.638V135.951H527.394V151.126Z" fill="white"/>
<path d="M590.453 111.337H596V156.524H591.223L565.491 121.269V156.524H560.006V111.337H565.091L590.453 146.191V111.337Z" fill="white"/>
</svg>
