<svg width="40" height="40" viewBox="0 0 40 40" fill="none" xmlns="http://www.w3.org/2000/svg">
<g clip-path="url(#clip0_173_3398)">
<g clip-path="url(#clip1_173_3398)">
<path d="M32.2689 30.4499C18.5057 37 9.96418 31.5198 4.49646 28.1912C4.15812 27.9814 3.58305 28.2402 4.082 28.8133C5.90357 31.022 11.8732 36.3456 19.6654 36.3456C27.4629 36.3456 32.1017 32.0909 32.682 31.3487C33.2584 30.6128 32.8513 30.2068 32.2687 30.4499H32.2689ZM36.1342 28.3153C35.7646 27.834 33.8868 27.7443 32.705 27.8894C31.5214 28.0304 29.7449 28.7538 29.8993 29.1881C29.9786 29.3508 30.1404 29.2778 30.9534 29.2047C31.7688 29.1234 34.0528 28.8351 34.5287 29.4573C35.0069 30.0837 33.8002 33.068 33.5799 33.5493C33.3669 34.0306 33.6612 34.1547 34.0611 33.8341C34.4556 33.5137 35.1697 32.6839 35.6489 31.5096C36.1248 30.3288 36.415 28.6817 36.1341 28.3153H36.1342Z" fill="#FF9900"/>
<path fill-rule="evenodd" clip-rule="evenodd" d="M23.0143 17.0845C23.0143 18.8031 23.0577 20.2364 22.1891 21.7627C21.4879 23.0037 20.3773 23.7668 19.1364 23.7668C17.4425 23.7668 16.456 22.4762 16.456 20.5715C16.456 16.8114 19.825 16.129 23.0143 16.129V17.0845ZM27.463 27.8371C27.1713 28.0976 26.7494 28.1163 26.4206 27.9425C24.9564 26.7265 24.6957 26.1619 23.8891 25.0015C21.4694 27.471 19.7569 28.2093 16.6174 28.2093C12.907 28.2093 10.0156 25.9198 10.0156 21.3346C10.0156 17.7546 11.9578 15.3161 14.7186 14.1249C17.1137 13.07 20.458 12.8839 23.0143 12.5924V12.0215C23.0143 10.9729 23.0949 9.73202 22.4807 8.8262C21.9408 8.01337 20.9109 7.6783 20.005 7.6783C18.3236 7.6783 16.8221 8.5407 16.456 10.3276C16.3814 10.7248 16.0899 11.1157 15.6929 11.1343L11.4116 10.6752C11.0518 10.5944 10.6548 10.3029 10.754 9.75059C11.7405 4.56366 16.4249 3 20.6191 3C22.766 3 25.5704 3.57088 27.2643 5.19653C29.4111 7.20055 29.2063 9.8747 29.2063 12.7847V19.6594C29.2063 21.7255 30.0626 22.6313 30.8691 23.7482C31.1545 24.1453 31.2166 24.6232 30.8567 24.9208C29.957 25.6715 28.3562 27.0677 27.4753 27.8495L27.4628 27.8371" fill="black"/>
<path d="M32.2689 30.4499C18.5057 37 9.96418 31.5198 4.49646 28.1912C4.15812 27.9814 3.58305 28.2402 4.082 28.8133C5.90357 31.022 11.8732 36.3456 19.6654 36.3456C27.4629 36.3456 32.1017 32.0909 32.682 31.3487C33.2584 30.6128 32.8513 30.2068 32.2687 30.4499H32.2689ZM36.1342 28.3153C35.7646 27.834 33.8868 27.7443 32.705 27.8894C31.5214 28.0304 29.7449 28.7538 29.8993 29.1881C29.9786 29.3508 30.1404 29.2778 30.9534 29.2047C31.7688 29.1234 34.0528 28.8351 34.5287 29.4573C35.0069 30.0837 33.8002 33.068 33.5799 33.5493C33.3669 34.0306 33.6612 34.1547 34.0611 33.8341C34.4556 33.5137 35.1697 32.6839 35.6489 31.5096C36.1248 30.3288 36.415 28.6817 36.1341 28.3153H36.1342Z" fill="#FF9900"/>
<path fill-rule="evenodd" clip-rule="evenodd" d="M23.0143 17.0845C23.0143 18.8031 23.0577 20.2364 22.1891 21.7627C21.4879 23.0037 20.3773 23.7668 19.1364 23.7668C17.4425 23.7668 16.456 22.4762 16.456 20.5715C16.456 16.8114 19.825 16.129 23.0143 16.129V17.0845ZM27.463 27.8371C27.1713 28.0976 26.7494 28.1163 26.4206 27.9425C24.9564 26.7265 24.6957 26.1619 23.8891 25.0015C21.4694 27.471 19.7569 28.2093 16.6174 28.2093C12.907 28.2093 10.0156 25.9198 10.0156 21.3346C10.0156 17.7546 11.9578 15.3161 14.7186 14.1249C17.1137 13.07 20.458 12.8839 23.0143 12.5924V12.0215C23.0143 10.9729 23.0949 9.73202 22.4807 8.8262C21.9408 8.01337 20.9109 7.6783 20.005 7.6783C18.3236 7.6783 16.8221 8.5407 16.456 10.3276C16.3814 10.7248 16.0899 11.1157 15.6929 11.1343L11.4116 10.6752C11.0518 10.5944 10.6548 10.3029 10.754 9.75059C11.7405 4.56366 16.4249 3 20.6191 3C22.766 3 25.5704 3.57088 27.2643 5.19653C29.4111 7.20055 29.2063 9.8747 29.2063 12.7847V19.6594C29.2063 21.7255 30.0626 22.6313 30.8691 23.7482C31.1545 24.1453 31.2166 24.6232 30.8567 24.9208C29.957 25.6715 28.3562 27.0677 27.4753 27.8495L27.4628 27.8371" fill="black"/>
</g>
</g>
<defs>
<clipPath id="clip0_173_3398">
<rect width="34" height="34" fill="white" transform="translate(3 3)"/>
</clipPath>
<clipPath id="clip1_173_3398">
<rect width="34" height="34" fill="white" transform="translate(3 3)"/>
</clipPath>
</defs>
</svg>
