<svg width="226" height="31" viewBox="0 0 226 31" fill="none" xmlns="http://www.w3.org/2000/svg">
<path d="M13.7952 18.3469C14.7973 18.8663 15.5803 19.6217 16.144 20.566C16.7077 21.526 16.9739 22.612 16.9739 23.8395C16.9739 25.6809 16.2692 27.2547 14.86 28.5452C13.4507 29.8358 11.7439 30.4968 9.75528 30.4968H0V7.44043H9.50475C11.4777 7.44043 13.1062 8.007 14.4215 9.14014C15.7369 10.2733 16.3945 11.6897 16.3945 13.3737C16.3945 14.3652 16.1596 15.2937 15.7055 16.1751C15.2358 17.0564 14.6094 17.7804 13.7952 18.3469ZM11.5717 14.1606C11.5717 13.7829 11.509 13.4524 11.3838 13.1534C11.2585 12.8543 11.0863 12.6025 10.8827 12.3822C10.6635 12.1619 10.3973 11.9887 10.0841 11.8786C9.77094 11.7527 9.41079 11.6897 9.01933 11.6897H4.88547V16.6H9.01933C9.80226 16.6 10.4286 16.3797 10.8827 15.9233C11.3368 15.4826 11.5717 14.8846 11.5717 14.1606ZM9.26987 25.9327C10.0841 25.9327 10.7261 25.6966 11.2428 25.2088C11.7439 24.7209 11.9945 24.1071 11.9945 23.3359C11.9945 22.5962 11.7439 21.9667 11.2428 21.4946C10.7418 21.0067 10.0841 20.7706 9.26987 20.7706H4.88547V25.9327H9.26987Z" fill="white"/>
<path d="M33.338 31.0001C29.8461 31.0001 26.9336 29.8512 24.6005 27.5535C22.2674 25.2557 21.1086 22.3914 21.1086 18.9762C21.1086 15.561 22.2674 12.6967 24.6005 10.3989C26.9336 8.10116 29.8461 6.95228 33.338 6.95228C35.6398 6.95228 37.7067 7.47164 39.5857 8.51035C41.4491 9.54907 42.9053 10.997 43.9545 12.8226C45.0036 14.664 45.5203 16.7099 45.5203 18.9605C45.5203 22.4071 44.3616 25.2714 42.0441 27.5535C39.7423 29.8512 36.8298 31.0001 33.338 31.0001ZM33.338 26.2944C34.7003 26.2944 35.9216 25.9797 37.0021 25.3501C38.0982 24.7206 38.9594 23.855 39.5701 22.7376C40.1808 21.6202 40.5096 20.3612 40.5096 18.9762C40.5096 16.883 39.8206 15.1518 38.4583 13.7511C37.096 12.3505 35.3892 11.658 33.338 11.658C31.2867 11.658 29.5799 12.3505 28.1863 13.7511C26.7927 15.1518 26.1037 16.883 26.1037 18.9762C26.1037 21.0694 26.7927 22.8006 28.1863 24.2013C29.5956 25.5862 31.3024 26.2944 33.338 26.2944ZM26.9806 5.20535V0.751465H32.054V5.20535H26.9806ZM34.6533 5.20535V0.751465H39.7267V5.20535H34.6533Z" fill="white"/>
<path d="M64.1262 30.5125L59.6635 22.6434H56.4848V30.5125H51.5054V7.44043H60.7752C62.2785 7.44043 63.6408 7.77093 64.8778 8.41619C66.0991 9.06146 67.0543 9.97427 67.7433 11.1389C68.4323 12.3035 68.7768 13.6255 68.7768 15.0892C68.7768 16.5685 68.401 17.8905 67.665 19.0709C66.929 20.2513 65.9112 21.1641 64.6116 21.7779L69.685 30.5125H64.1262ZM56.4848 12.0517V18.0164H60.4464C61.4486 18.0164 62.2471 17.7489 62.8578 17.1981C63.4529 16.6472 63.766 15.939 63.766 15.0577C63.766 14.4596 63.6408 13.9403 63.3746 13.4996C63.1084 13.0432 62.7326 12.697 62.2315 12.4451C61.7304 12.1933 61.1354 12.0674 60.4621 12.0674H56.4848V12.0517Z" fill="white"/>
<path d="M82.3369 30.9688C79.6749 30.9688 77.5297 30.2606 75.9012 28.8442C74.2727 27.4277 73.4585 25.4919 73.4585 23.0368H78.4692C78.4692 23.5876 78.5788 24.0755 78.7824 24.5004C78.986 24.9254 79.2678 25.2716 79.628 25.5392C79.9881 25.8067 80.3952 25.9956 80.865 26.1372C81.3191 26.2631 81.8045 26.3418 82.3056 26.3418C83.3077 26.3418 84.1846 26.1057 84.9049 25.6178C85.6409 25.13 86.001 24.469 86.001 23.6348C86.001 23.2886 85.907 22.9738 85.7348 22.6906C85.5626 22.423 85.359 22.2027 85.1241 22.0296C84.8892 21.8722 84.5448 21.6991 84.075 21.5259C83.6052 21.3528 83.2138 21.2112 82.8849 21.1325C82.5561 21.0381 82.0707 20.9279 81.413 20.7705C80.8963 20.6446 80.4892 20.5344 80.2387 20.4715C79.9881 20.4085 79.581 20.2984 79.0799 20.141C78.5632 19.9836 78.1717 19.8577 77.9055 19.7318C77.6393 19.6059 77.2792 19.4485 76.8407 19.2282C76.4023 19.0078 76.0578 18.7875 75.8229 18.5672C75.5881 18.3468 75.3219 18.0793 75.0244 17.7488C74.7268 17.4183 74.5076 17.072 74.351 16.7101C74.1945 16.3481 74.0692 15.9232 73.9596 15.451C73.85 14.9789 73.803 14.4753 73.803 13.9559C73.803 11.7526 74.5389 10.0529 76.0265 8.85676C77.5141 7.64492 79.5497 7.04688 82.1177 7.04688C84.717 7.04688 86.737 7.70788 88.1932 9.02988C89.6494 10.3519 90.3697 12.1618 90.3697 14.4595H85.4529C85.4529 13.5152 85.1241 12.7913 84.4508 12.3034C83.7775 11.8155 82.9632 11.5637 81.9767 11.5637C81.0999 11.5637 80.3483 11.7526 79.7063 12.1303C79.0643 12.508 78.7354 13.0431 78.7354 13.7513C78.7354 14.0818 78.8137 14.3651 78.986 14.6169C79.1426 14.8687 79.3461 15.0733 79.5653 15.2464C79.7846 15.4038 80.129 15.5769 80.5831 15.7343C81.0372 15.8917 81.4287 16.0176 81.7419 16.0963C82.055 16.175 82.5405 16.2851 83.1668 16.4425C83.8714 16.6156 84.3882 16.7573 84.7327 16.8517C85.0771 16.9461 85.5782 17.1193 86.2359 17.3396C86.8935 17.5757 87.3946 17.796 87.7548 18.0163C88.1149 18.2367 88.5377 18.52 89.0231 18.8819C89.5085 19.2439 89.8687 19.6374 90.1192 20.0623C90.3697 20.4872 90.589 21.0066 90.7769 21.6046C90.9648 22.2027 91.0587 22.8637 91.0587 23.5719C91.0587 25.1772 90.6516 26.5464 89.853 27.6953C89.0388 28.8442 88.0053 29.6783 86.7213 30.1976C85.4373 30.7013 83.981 30.9688 82.3369 30.9688Z" fill="white"/>
<path d="M105.024 30.9057C102.753 30.9057 100.859 30.1503 99.3554 28.6394C97.8522 27.1286 97.1006 25.2085 97.1006 22.8793V22.4229H99.9191V22.7534C99.9191 24.3115 100.405 25.5862 101.36 26.5935C102.315 27.6007 103.552 28.0886 105.024 28.0886C106.449 28.0886 107.623 27.585 108.578 26.5777C109.533 25.5705 110.003 24.2957 110.003 22.7534V7.47168H112.853V22.895C112.853 25.2243 112.117 27.1443 110.645 28.6552C109.173 30.1346 107.294 30.9057 105.024 30.9057Z" fill="white"/>
<path d="M136.827 30.5124L134.526 24.9726H123.518L121.263 30.5124H118.209L127.589 7.45605H130.282L139.944 30.5124H136.827ZM128.998 11.4221L124.614 22.3286H133.461L128.998 11.4221Z" fill="white"/>
<path d="M159.227 30.5125L151.163 19.9365H148.078V30.5125H145.229V7.44043H148.078V17.2295H151.132L158.476 7.44043H162.14L153.747 18.5358L162.891 30.4968H159.227V30.5125Z" fill="white"/>
<path d="M182.342 7.44043V10.1474H175.358V30.5125H172.477V10.1474H165.493V7.44043H182.342Z" fill="white"/>
<path d="M191.14 27.7426H201.631V30.5125H188.29V7.44043H201.271V10.1789H191.14V17.324H200.41V19.9994H191.14V27.7426Z" fill="white"/>
<path d="M223.181 7.44043H226V30.4968H223.573L210.498 12.5081V30.4968H207.711V7.44043H210.294L223.181 25.2245V7.44043Z" fill="white"/>
</svg>
