<svg width="199" height="28" viewBox="0 0 199 28" fill="none" xmlns="http://www.w3.org/2000/svg">
<path fill-rule="evenodd" clip-rule="evenodd" d="M21.6626 24.3811C23.717 26.3959 26.2815 27.4033 29.3562 27.4033C32.4309 27.4033 34.9954 26.3959 37.0222 24.3811C39.0628 22.3801 40.0831 19.8685 40.0831 16.8463C40.0831 14.8729 39.6281 13.0789 38.7043 11.4642C37.7805 9.86343 36.4983 8.59382 34.8575 7.68302C33.203 6.77221 31.383 6.31681 29.3562 6.31681C26.2815 6.31681 23.717 7.32422 21.6626 9.33903C19.6082 11.3538 18.5879 13.8655 18.5879 16.8601C18.5879 19.8547 19.6082 22.3663 21.6626 24.3811ZM32.5825 22.4491C31.6312 23.0011 30.5557 23.2771 29.3562 23.2771C27.5638 23.2771 26.0609 22.6561 24.82 21.4417C23.5929 20.2135 22.9862 18.6955 22.9862 16.8601C22.9862 15.0247 23.5929 13.5067 24.82 12.2784C26.0471 11.0502 27.55 10.443 29.3562 10.443C31.1624 10.443 32.6653 11.0502 33.8648 12.2784C35.0643 13.5067 35.671 15.0247 35.671 16.8601C35.671 18.0745 35.3815 19.1785 34.8437 20.1583C34.306 21.1381 33.5477 21.8971 32.5825 22.4491ZM23.7583 0.879578V4.785H28.2256V0.879578H23.7583ZM30.5144 0.879578V4.785H34.9816V0.879578H30.5144ZM14.2153 18.2539C13.7189 17.4259 13.0295 16.7635 12.1471 16.3081C12.864 15.8113 13.4156 15.1765 13.8292 14.4037C14.229 13.6309 14.4359 12.8167 14.4359 11.9473C14.4359 10.4707 13.8568 9.22866 12.6986 8.23505C11.5404 7.24145 10.1065 6.74464 8.36921 6.74464H0V26.9618H8.58982C10.3409 26.9618 11.8437 26.3822 13.0847 25.2506C14.3256 24.119 14.946 22.7389 14.946 21.1243C14.946 20.0479 14.7116 19.0957 14.2153 18.2539ZM10.0238 11.7541C10.1341 12.0163 10.1892 12.3061 10.1892 12.6373C10.1892 13.2721 9.98239 13.7965 9.58254 14.1829C9.1827 14.5831 8.63118 14.7763 7.94179 14.7763H4.3018V10.4707H7.94179C8.28649 10.4707 8.60361 10.5259 8.87936 10.6363C9.15512 10.7329 9.38951 10.8847 9.58254 11.0779C9.76178 11.2711 9.91345 11.4919 10.0238 11.7541ZM9.89966 22.3249C9.44466 22.7527 8.87936 22.9597 8.1624 22.9597H4.3018V18.4333H8.1624C8.87936 18.4333 9.45845 18.6403 9.89966 19.0681C10.3409 19.4821 10.5615 20.0341 10.5615 20.6827C10.5615 21.3589 10.3409 21.8971 9.89966 22.3249ZM56.4655 26.9756L52.536 20.0755H49.7371V26.9756H45.3525V6.74464H53.5149C54.8386 6.74464 56.0381 7.03445 57.1273 7.60025C58.2028 8.16605 59.0438 8.96646 59.6505 9.98766C60.2572 11.0089 60.5605 12.1681 60.5605 13.4515C60.5605 14.7487 60.2296 15.9079 59.5816 16.9429C58.9335 17.9779 58.0373 18.7783 56.8929 19.3165L61.3602 26.9756H56.4655ZM49.7371 10.8019V16.0183H53.2254C54.1078 16.0183 54.811 15.7837 55.3487 15.3007C55.8727 14.8177 56.1484 14.1967 56.1484 13.4239C56.1484 12.8995 56.0381 12.4441 55.8037 12.0577C55.5693 11.6575 55.2384 11.3539 54.7972 11.1331C54.356 10.9123 53.8321 10.8019 53.2392 10.8019H49.7371ZM66.8335 25.5128C68.2675 26.7548 70.1564 27.3758 72.5003 27.3758C73.948 27.3758 75.2303 27.1412 76.3609 26.6996C77.4915 26.2442 78.4015 25.5128 79.1185 24.5054C79.8216 23.498 80.1801 22.2973 80.1801 20.8897C80.1801 20.2687 80.0974 19.6891 79.932 19.1647C79.7665 18.6403 79.5735 18.1849 79.3529 17.8123C79.1323 17.4397 78.8151 17.0947 78.3877 16.7773C77.9603 16.4599 77.588 16.2115 77.2709 16.0183C76.9538 15.8251 76.5126 15.6319 75.9335 15.4249L75.644 15.3281L75.6436 15.3279L75.6431 15.3278C75.2047 15.1809 74.8603 15.0655 74.6099 14.9971C74.3065 14.9143 73.8515 14.7901 73.2311 14.6383C72.9085 14.5576 72.6284 14.4911 72.3963 14.4359L72.3955 14.4357L72.3951 14.4356C72.2308 14.3966 72.0906 14.3633 71.9764 14.3347C71.7006 14.2657 71.3559 14.1553 70.9561 14.0173C70.5562 13.8793 70.2529 13.7275 70.0599 13.5895C69.8668 13.4377 69.6876 13.2583 69.5497 13.0375C69.3981 12.8167 69.3291 12.5683 69.3291 12.2785C69.3291 11.6575 69.6187 11.1883 70.184 10.8571C70.7493 10.5259 71.4111 10.3603 72.1832 10.3603C73.0518 10.3603 73.7688 10.5811 74.3617 11.0089C74.9546 11.4367 75.2441 12.0715 75.2441 12.8995H79.5735C79.5735 10.8847 78.9392 9.29768 77.657 8.13847C76.3747 6.97926 74.5961 6.39966 72.3073 6.39966C70.0461 6.39966 68.2537 6.92406 66.9438 7.98667C65.634 9.03547 64.986 10.5259 64.986 12.4579C64.986 12.9133 65.0273 13.3549 65.1238 13.7689C65.2203 14.1829 65.3307 14.5555 65.4685 14.8729C65.6064 15.1903 65.7994 15.4939 66.0614 15.7837C66.3234 16.0735 66.5578 16.3081 66.7646 16.5013C66.9714 16.6945 67.2747 16.8877 67.6608 17.0809C67.9299 17.2156 68.1656 17.3235 68.3631 17.4139C68.4488 17.4531 68.5274 17.4891 68.5984 17.5225C68.8328 17.6329 69.1775 17.7433 69.6324 17.8813C70.0737 18.0193 70.4321 18.1159 70.6527 18.1711C70.7272 18.1897 70.8173 18.2131 70.9215 18.2401C71.1262 18.2931 71.3853 18.3602 71.6868 18.4333C71.8199 18.465 71.945 18.4946 72.0623 18.5223L72.0623 18.5223C72.4552 18.615 72.7599 18.687 72.9829 18.7507C73.2724 18.8197 73.6171 18.9439 74.0308 19.0957C74.4444 19.2475 74.7477 19.3993 74.9546 19.5373C75.1614 19.6891 75.3406 19.8823 75.4923 20.1169C75.6439 20.3653 75.7267 20.6413 75.7267 20.9449C75.7267 21.6763 75.4095 22.256 74.7615 22.6838C74.1273 23.1116 73.3552 23.3186 72.4727 23.3186C72.0315 23.3186 71.6041 23.2496 71.2043 23.1392C70.7906 23.015 70.4321 22.8494 70.115 22.6148C69.7979 22.3802 69.5497 22.0765 69.3705 21.7039C69.1912 21.3313 69.0947 20.9035 69.0947 20.4205H64.6826C64.6826 22.5734 65.3996 24.2708 66.8335 25.5128ZM92.4766 27.3205C90.4774 27.3205 88.8091 26.6581 87.4855 25.3333C86.1618 24.0085 85.5 22.3249 85.5 20.2825V19.8823H87.9818V20.1721C87.9818 21.5383 88.4092 22.6561 89.2503 23.5393C90.0913 24.4225 91.1806 24.8503 92.4766 24.8503C93.7313 24.8503 94.7654 24.4087 95.6065 23.5255C96.4475 22.6423 96.8612 21.5245 96.8612 20.1721V6.77219H99.3706V20.2963C99.3706 22.3387 98.7225 24.0223 97.4265 25.3471C96.1304 26.6443 94.4759 27.3205 92.4766 27.3205ZM118.455 22.1179L120.482 26.9756H123.225L114.718 6.75845H112.347L104.088 26.9756H106.777L108.762 22.1179H118.455ZM109.727 19.7995L113.588 10.2361L117.517 19.7995H109.727ZM140.204 26.9756L133.104 17.7019H130.387V26.9756H127.878V6.74464H130.387V15.3283H133.076L139.542 6.74464H142.769L135.379 16.4737L143.431 26.9618H140.204V26.9756ZM160.557 9.11826V6.74464H145.722V9.11826H151.871V26.9756H154.408V9.11826H160.557ZM168.306 24.5467H177.544V26.9756H165.797V6.74464H177.227V9.14586H168.306V15.4111H176.469V17.7571H168.306V24.5467ZM199 6.74464H196.518V22.3387L185.171 6.74464H182.896V26.9618H185.35V11.1883L196.863 26.9618H199V6.74464Z" fill="url(#paint0_linear_246_5651)"/>
<defs>
<linearGradient id="paint0_linear_246_5651" x1="-2.92139e-06" y1="12.3732" x2="199" y2="12.3732" gradientUnits="userSpaceOnUse">
<stop offset="0.296875" stop-color="#0A39B1"/>
<stop offset="1" stop-color="#E0098A"/>
</linearGradient>
</defs>
</svg>
