<svg width="30" height="30" viewBox="0 0 30 30" fill="none" xmlns="http://www.w3.org/2000/svg">
<g opacity="0.7">
<path d="M2.5 8.5C2.5 7.94772 2.94772 7.5 3.5 7.5H8.33579C8.601 7.5 8.85536 7.39464 9.04289 7.20711L10.9571 5.29289C11.1446 5.10536 11.399 5 11.6642 5H18.3358C18.601 5 18.8554 5.10536 19.0429 5.29289L20.9571 7.20711C21.1446 7.39464 21.399 7.5 21.6642 7.5H26.5C27.0523 7.5 27.5 7.94772 27.5 8.5V22.75C27.5 23.3023 27.0523 23.75 26.5 23.75H3.5C2.94772 23.75 2.5 23.3023 2.5 22.75V8.5Z" stroke="#0A39B2" stroke-width="2"/>
<circle cx="15" cy="15" r="5.25" stroke="#0A39B2" stroke-width="2"/>
</g>
</svg>
