<svg width="40" height="40" viewBox="0 0 40 40" fill="none" xmlns="http://www.w3.org/2000/svg">
<g clip-path="url(#clip0_173_3360)">
<path d="M14.3248 37C17.4474 37 19.9817 34.4613 19.9817 31.3333V25.6666H14.3248C11.2022 25.6666 8.66797 28.2053 8.66797 31.3333C8.66797 34.4613 11.2022 37 14.3248 37Z" fill="#0ACF83"/>
<path d="M8.66797 20C8.66797 16.872 11.2022 14.3334 14.3248 14.3334H19.9817V25.6667H14.3248C11.2022 25.6667 8.66797 23.128 8.66797 20Z" fill="#A259FF"/>
<path d="M8.66797 8.66667C8.66797 5.53867 11.2022 3 14.3248 3H19.9817V14.3333H14.3248C11.2022 14.3333 8.66797 11.7947 8.66797 8.66667Z" fill="#F24E1E"/>
<path d="M19.9824 3H25.6393C28.7618 3 31.2961 5.53867 31.2961 8.66667C31.2961 11.7947 28.7618 14.3333 25.6393 14.3333H19.9824V3Z" fill="#FF7262"/>
<path d="M31.2961 20C31.2961 23.128 28.7618 25.6667 25.6393 25.6667C22.5167 25.6667 19.9824 23.128 19.9824 20C19.9824 16.872 22.5167 14.3334 25.6393 14.3334C28.7618 14.3334 31.2961 16.872 31.2961 20Z" fill="#1ABCFE"/>
</g>
<defs>
<clipPath id="clip0_173_3360">
<rect width="22.6319" height="34" fill="white" transform="translate(8.66602 3)"/>
</clipPath>
</defs>
</svg>
