<svg width="18" height="18" viewBox="0 0 18 18" fill="none" xmlns="http://www.w3.org/2000/svg">
<path fill-rule="evenodd" clip-rule="evenodd" d="M5.56454 0.716851C6.45343 0.6764 6.73746 0.666504 9.00065 0.666504H8.99805C11.2619 0.666504 11.5449 0.6764 12.4338 0.716851C13.321 0.757476 13.9269 0.897928 14.4581 1.104C15.0067 1.31668 15.4703 1.6014 15.9338 2.06494C16.3974 2.52814 16.6821 2.99307 16.8956 3.54116C17.1005 4.07102 17.2411 4.67657 17.2828 5.56373C17.3227 6.45261 17.3331 6.73664 17.3331 8.99984C17.3331 11.263 17.3227 11.5464 17.2828 12.4353C17.2411 13.3221 17.1005 13.9278 16.8956 14.4578C16.6821 15.0057 16.3974 15.4707 15.9338 15.9339C15.4708 16.3974 15.0066 16.6828 14.4586 16.8957C13.9284 17.1017 13.3222 17.2422 12.435 17.2828C11.5461 17.3233 11.263 17.3332 8.99961 17.3332C6.73659 17.3332 6.45274 17.3233 5.56385 17.2828C4.67687 17.2422 4.07114 17.1017 3.54093 16.8957C2.99319 16.6828 2.52826 16.3974 2.06524 15.9339C1.60187 15.4707 1.31715 15.0057 1.10413 14.4576C0.898223 13.9278 0.757772 13.3222 0.716973 12.4351C0.676695 11.5462 0.666626 11.263 0.666626 8.99984C0.666626 6.73664 0.677043 6.45244 0.7168 5.56355C0.75673 4.67675 0.897355 4.07102 1.10395 3.54098C1.31749 2.99307 1.60222 2.52814 2.06576 2.06494C2.52895 1.60157 2.99388 1.31685 3.54197 1.104C4.07183 0.897928 4.67739 0.757476 5.56454 0.716851ZM12.449 4.55146C12.449 3.9992 12.8969 3.55181 13.449 3.55181V3.55146C14.001 3.55146 14.449 3.99938 14.449 4.55146C14.449 5.10354 14.001 5.55146 13.449 5.55146C12.8969 5.55146 12.449 5.10354 12.449 4.55146ZM9.00058 4.72057C6.63729 4.72066 4.72124 6.63677 4.72124 9.00008C4.72124 11.3635 6.63739 13.2787 9.00076 13.2787C11.3641 13.2787 13.2796 11.3635 13.2796 9.00008C13.2796 6.63672 11.364 4.72057 9.00058 4.72057ZM11.7785 8.99971C11.7785 7.46551 10.5348 6.22193 9.00074 6.22193C7.46654 6.22193 6.22296 7.46551 6.22296 8.99971C6.22296 10.5337 7.46654 11.7775 9.00074 11.7775C10.5348 11.7775 11.7785 10.5337 11.7785 8.99971Z" fill="white"/>
</svg>
