<svg width="40" height="40" viewBox="0 0 40 40" fill="none" xmlns="http://www.w3.org/2000/svg">
<g clip-path="url(#clip0_173_3379)">
<path d="M33.6 3H6.4C4.52223 3 3 4.52223 3 6.4V33.6C3 35.4778 4.52223 37 6.4 37H33.6C35.4778 37 37 35.4778 37 33.6V6.4C37 4.52223 35.4778 3 33.6 3Z" fill="#6772E5"/>
<path fill-rule="evenodd" clip-rule="evenodd" d="M18.4808 15.716C18.4808 14.832 19.2061 14.492 20.4074 14.492C22.1301 14.492 24.3061 15.0134 26.0288 15.9427V10.616C24.1474 9.86803 22.2888 9.57336 20.4074 9.57336C15.8061 9.57336 12.7461 11.976 12.7461 15.988C12.7461 22.244 21.3594 21.2467 21.3594 23.944C21.3594 24.9867 20.4528 25.3267 19.1834 25.3267C17.3021 25.3267 14.8994 24.556 12.9954 23.5134V28.908C15.1034 29.8147 17.2341 30.2 19.1834 30.2C23.8981 30.2 27.1394 27.8654 27.1394 23.808C27.1168 17.0534 18.4808 18.2547 18.4808 15.716Z" fill="white"/>
</g>
<defs>
<clipPath id="clip0_173_3379">
<rect width="34" height="34" fill="white" transform="translate(3 3)"/>
</clipPath>
</defs>
</svg>
