<svg width="18" height="16" viewBox="0 0 18 16" fill="none" xmlns="http://www.w3.org/2000/svg">
<path fill-rule="evenodd" clip-rule="evenodd" d="M7.06434 10.3992L7.06412 10.3991L7.06436 10.3988L7.0644 10.3982L7.06477 10.3985L14.6902 3.51711C15.0249 3.22007 14.6171 3.07522 14.1728 3.34465L4.7612 9.28232L0.695899 8.01347C-0.182027 7.74466 -0.188331 7.14138 0.893003 6.70766L16.7346 0.59923C17.4581 0.27075 18.1564 0.773009 17.8802 1.8804L15.1824 14.5935C14.994 15.4969 14.4481 15.713 13.6918 15.2957L9.58198 12.2593L7.60684 14.1798C7.60061 14.1859 7.59442 14.1919 7.58825 14.1979C7.36732 14.413 7.18453 14.591 6.78455 14.591L7.06434 10.3992Z" fill="white"/>
</svg>
