<svg width="20" height="16" viewBox="0 0 20 16" fill="none" xmlns="http://www.w3.org/2000/svg">
<path d="M9.73525 4.49023L9.77499 5.13903L9.11265 5.05958C6.70173 4.75505 4.59548 3.72228 2.80715 1.98775L1.93286 1.12711L1.70767 1.76266C1.23078 3.17941 1.53546 4.6756 2.52897 5.68189C3.05884 6.238 2.93962 6.31745 2.02559 5.98643C1.70767 5.8805 1.42948 5.80106 1.40299 5.84078C1.31026 5.93347 1.62818 7.13837 1.87987 7.61503C2.22429 8.27706 2.92638 8.92585 3.69469 9.30983L4.34379 9.61437L3.57547 9.62761C2.83365 9.62761 2.80715 9.64085 2.88664 9.9189C3.15157 10.7795 4.19807 11.6932 5.36379 12.0904L6.1851 12.3684L5.46977 12.7921C4.41002 13.4012 3.16482 13.7455 1.91962 13.7719C1.32351 13.7852 0.833374 13.8381 0.833374 13.8779C0.833374 14.0103 2.44949 14.7517 3.39002 15.043C6.21159 15.9037 9.56305 15.5329 12.0799 14.0632C13.8683 13.0172 15.6566 10.9384 16.4911 8.92585C16.9415 7.85336 17.3919 5.89374 17.3919 4.95366C17.3919 4.34459 17.4317 4.26514 18.1735 3.53691C18.6106 3.11321 19.0213 2.64978 19.1008 2.51738C19.2332 2.2658 19.22 2.2658 18.5444 2.4909C17.4184 2.88811 17.2595 2.83515 17.8158 2.23932C18.2265 1.81562 18.7166 1.04766 18.7166 0.822572C18.7166 0.78285 18.5179 0.849054 18.2927 0.968219C18.0543 1.10063 17.5244 1.29924 17.127 1.4184L16.4117 1.64349L15.7626 1.20655C15.4049 0.968219 14.9015 0.703406 14.6366 0.623962C13.961 0.438593 12.9277 0.465074 12.3184 0.676925C10.6625 1.27275 9.61603 2.80867 9.73525 4.49023Z" fill="white"/>
</svg>
