<svg width="20" height="16" viewBox="0 0 20 16" fill="none" xmlns="http://www.w3.org/2000/svg">
<path fill-rule="evenodd" clip-rule="evenodd" d="M17.8138 1.24166C18.6744 1.47781 19.3521 2.17361 19.5821 3.05721C20.0001 4.65863 20.0001 8.00002 20.0001 8.00002C20.0001 8.00002 20.0001 11.3413 19.5821 12.9428C19.3521 13.8264 18.6744 14.5222 17.8138 14.7585C16.2542 15.1875 10 15.1875 10 15.1875C10 15.1875 3.74581 15.1875 2.18614 14.7585C1.32557 14.5222 0.647843 13.8264 0.417842 12.9428C0 11.3413 0 8.00002 0 8.00002C0 8.00002 0 4.65863 0.417842 3.05721C0.647843 2.17361 1.32557 1.47781 2.18614 1.24166C3.74581 0.8125 10 0.8125 10 0.8125C10 0.8125 16.2542 0.8125 17.8138 1.24166ZM8.12498 5.1872V11.4372L13.125 8.31233L8.12498 5.1872Z" fill="white"/>
</svg>
